<mxfile host="Electron" modified="2024-05-03T08:05:47.475Z" agent="Mozilla/5.0 (Windows NT 10.0; Win64; x64) AppleWebKit/537.36 (KHTML, like Gecko) draw.io/24.2.5 Chrome/120.0.6099.109 Electron/28.1.0 Safari/537.36" etag="e3UMb1Cg_XqBX6onhcYk" version="24.2.5" type="device">
  <diagram name="第 1 页" id="dVdpCF9wNjlWeNjONU8Y">
    <mxGraphModel dx="989" dy="577" grid="1" gridSize="10" guides="1" tooltips="1" connect="1" arrows="1" fold="1" page="1" pageScale="1" pageWidth="1169" pageHeight="1654" math="0" shadow="0">
      <root>
        <mxCell id="0" />
        <mxCell id="1" parent="0" />
        <mxCell id="nSlpM6zE50K-tXMGbX81-155" value="" style="rounded=0;whiteSpace=wrap;html=1;dashed=1;fillColor=#f5f5f5;strokeColor=#666666;fontColor=#333333;" parent="1" vertex="1">
          <mxGeometry x="450" y="80" width="410" height="410" as="geometry" />
        </mxCell>
        <mxCell id="nSlpM6zE50K-tXMGbX81-108" style="edgeStyle=orthogonalEdgeStyle;rounded=0;orthogonalLoop=1;jettySize=auto;html=1;exitX=0.5;exitY=1;exitDx=0;exitDy=0;entryX=0;entryY=0.5;entryDx=0;entryDy=0;" parent="1" source="nSlpM6zE50K-tXMGbX81-1" target="nSlpM6zE50K-tXMGbX81-107" edge="1">
          <mxGeometry relative="1" as="geometry" />
        </mxCell>
        <mxCell id="nSlpM6zE50K-tXMGbX81-1" value="" style="rounded=0;whiteSpace=wrap;html=1;dashed=1;fillColor=#dae8fc;strokeColor=#6c8ebf;" parent="1" vertex="1">
          <mxGeometry x="110" y="80" width="295" height="410" as="geometry" />
        </mxCell>
        <mxCell id="oNOvtMG3czTlzHMHdK3j-41" style="edgeStyle=orthogonalEdgeStyle;rounded=0;orthogonalLoop=1;jettySize=auto;html=1;exitX=0.5;exitY=1;exitDx=0;exitDy=0;entryX=0.5;entryY=0;entryDx=0;entryDy=0;" parent="1" source="oNOvtMG3czTlzHMHdK3j-2" target="oNOvtMG3czTlzHMHdK3j-39" edge="1">
          <mxGeometry relative="1" as="geometry" />
        </mxCell>
        <mxCell id="oNOvtMG3czTlzHMHdK3j-2" value="&lt;span style=&quot;font-size: 14px;&quot;&gt;&lt;font face=&quot;宋体&quot;&gt;矩阵乘&lt;/font&gt;&lt;font face=&quot;Times New Roman&quot;&gt;(MatMul)&lt;/font&gt;&lt;/span&gt;" style="rounded=0;whiteSpace=wrap;html=1;align=center;verticalAlign=middle;fontFamily=Helvetica;fontSize=12;fillColor=#b1ddf0;strokeColor=#10739e;" parent="1" vertex="1">
          <mxGeometry x="140" y="200" width="80" height="40" as="geometry" />
        </mxCell>
        <mxCell id="oNOvtMG3czTlzHMHdK3j-35" value="" style="edgeStyle=orthogonalEdgeStyle;rounded=0;orthogonalLoop=1;jettySize=auto;html=1;endArrow=classic;endFill=1;" parent="1" source="oNOvtMG3czTlzHMHdK3j-6" target="oNOvtMG3czTlzHMHdK3j-2" edge="1">
          <mxGeometry relative="1" as="geometry" />
        </mxCell>
        <mxCell id="oNOvtMG3czTlzHMHdK3j-6" value="" style="shape=table;startSize=0;container=1;collapsible=0;childLayout=tableLayout;fontSize=16;fillColor=none;" parent="1" vertex="1">
          <mxGeometry x="120" y="110" width="50" height="50" as="geometry" />
        </mxCell>
        <mxCell id="oNOvtMG3czTlzHMHdK3j-7" value="" style="shape=tableRow;horizontal=0;startSize=0;swimlaneHead=0;swimlaneBody=0;strokeColor=inherit;top=0;left=0;bottom=0;right=0;collapsible=0;dropTarget=0;fillColor=none;points=[[0,0.5],[1,0.5]];portConstraint=eastwest;fontSize=16;" parent="oNOvtMG3czTlzHMHdK3j-6" vertex="1">
          <mxGeometry width="50" height="17" as="geometry" />
        </mxCell>
        <mxCell id="oNOvtMG3czTlzHMHdK3j-8" value="" style="shape=partialRectangle;html=1;whiteSpace=wrap;connectable=0;strokeColor=inherit;overflow=hidden;fillColor=none;top=0;left=0;bottom=0;right=0;pointerEvents=1;fontSize=16;" parent="oNOvtMG3czTlzHMHdK3j-7" vertex="1">
          <mxGeometry width="17" height="17" as="geometry">
            <mxRectangle width="17" height="17" as="alternateBounds" />
          </mxGeometry>
        </mxCell>
        <mxCell id="oNOvtMG3czTlzHMHdK3j-9" value="" style="shape=partialRectangle;html=1;whiteSpace=wrap;connectable=0;strokeColor=inherit;overflow=hidden;fillColor=none;top=0;left=0;bottom=0;right=0;pointerEvents=1;fontSize=16;" parent="oNOvtMG3czTlzHMHdK3j-7" vertex="1">
          <mxGeometry x="17" width="16" height="17" as="geometry">
            <mxRectangle width="16" height="17" as="alternateBounds" />
          </mxGeometry>
        </mxCell>
        <mxCell id="oNOvtMG3czTlzHMHdK3j-10" value="" style="shape=partialRectangle;html=1;whiteSpace=wrap;connectable=0;strokeColor=inherit;overflow=hidden;fillColor=none;top=0;left=0;bottom=0;right=0;pointerEvents=1;fontSize=16;" parent="oNOvtMG3czTlzHMHdK3j-7" vertex="1">
          <mxGeometry x="33" width="17" height="17" as="geometry">
            <mxRectangle width="17" height="17" as="alternateBounds" />
          </mxGeometry>
        </mxCell>
        <mxCell id="oNOvtMG3czTlzHMHdK3j-11" value="" style="shape=tableRow;horizontal=0;startSize=0;swimlaneHead=0;swimlaneBody=0;strokeColor=inherit;top=0;left=0;bottom=0;right=0;collapsible=0;dropTarget=0;fillColor=none;points=[[0,0.5],[1,0.5]];portConstraint=eastwest;fontSize=16;" parent="oNOvtMG3czTlzHMHdK3j-6" vertex="1">
          <mxGeometry y="17" width="50" height="16" as="geometry" />
        </mxCell>
        <mxCell id="oNOvtMG3czTlzHMHdK3j-12" value="" style="shape=partialRectangle;html=1;whiteSpace=wrap;connectable=0;strokeColor=inherit;overflow=hidden;fillColor=none;top=0;left=0;bottom=0;right=0;pointerEvents=1;fontSize=16;" parent="oNOvtMG3czTlzHMHdK3j-11" vertex="1">
          <mxGeometry width="17" height="16" as="geometry">
            <mxRectangle width="17" height="16" as="alternateBounds" />
          </mxGeometry>
        </mxCell>
        <mxCell id="oNOvtMG3czTlzHMHdK3j-13" value="" style="shape=partialRectangle;html=1;whiteSpace=wrap;connectable=0;strokeColor=inherit;overflow=hidden;fillColor=none;top=0;left=0;bottom=0;right=0;pointerEvents=1;fontSize=16;" parent="oNOvtMG3czTlzHMHdK3j-11" vertex="1">
          <mxGeometry x="17" width="16" height="16" as="geometry">
            <mxRectangle width="16" height="16" as="alternateBounds" />
          </mxGeometry>
        </mxCell>
        <mxCell id="oNOvtMG3czTlzHMHdK3j-14" value="" style="shape=partialRectangle;html=1;whiteSpace=wrap;connectable=0;strokeColor=inherit;overflow=hidden;fillColor=none;top=0;left=0;bottom=0;right=0;pointerEvents=1;fontSize=16;" parent="oNOvtMG3czTlzHMHdK3j-11" vertex="1">
          <mxGeometry x="33" width="17" height="16" as="geometry">
            <mxRectangle width="17" height="16" as="alternateBounds" />
          </mxGeometry>
        </mxCell>
        <mxCell id="oNOvtMG3czTlzHMHdK3j-15" value="" style="shape=tableRow;horizontal=0;startSize=0;swimlaneHead=0;swimlaneBody=0;strokeColor=inherit;top=0;left=0;bottom=0;right=0;collapsible=0;dropTarget=0;fillColor=none;points=[[0,0.5],[1,0.5]];portConstraint=eastwest;fontSize=16;" parent="oNOvtMG3czTlzHMHdK3j-6" vertex="1">
          <mxGeometry y="33" width="50" height="17" as="geometry" />
        </mxCell>
        <mxCell id="oNOvtMG3czTlzHMHdK3j-16" value="" style="shape=partialRectangle;html=1;whiteSpace=wrap;connectable=0;strokeColor=inherit;overflow=hidden;fillColor=none;top=0;left=0;bottom=0;right=0;pointerEvents=1;fontSize=16;" parent="oNOvtMG3czTlzHMHdK3j-15" vertex="1">
          <mxGeometry width="17" height="17" as="geometry">
            <mxRectangle width="17" height="17" as="alternateBounds" />
          </mxGeometry>
        </mxCell>
        <mxCell id="oNOvtMG3czTlzHMHdK3j-17" value="" style="shape=partialRectangle;html=1;whiteSpace=wrap;connectable=0;strokeColor=inherit;overflow=hidden;fillColor=none;top=0;left=0;bottom=0;right=0;pointerEvents=1;fontSize=16;" parent="oNOvtMG3czTlzHMHdK3j-15" vertex="1">
          <mxGeometry x="17" width="16" height="17" as="geometry">
            <mxRectangle width="16" height="17" as="alternateBounds" />
          </mxGeometry>
        </mxCell>
        <mxCell id="oNOvtMG3czTlzHMHdK3j-18" value="" style="shape=partialRectangle;html=1;whiteSpace=wrap;connectable=0;strokeColor=inherit;overflow=hidden;fillColor=none;top=0;left=0;bottom=0;right=0;pointerEvents=1;fontSize=16;" parent="oNOvtMG3czTlzHMHdK3j-15" vertex="1">
          <mxGeometry x="33" width="17" height="17" as="geometry">
            <mxRectangle width="17" height="17" as="alternateBounds" />
          </mxGeometry>
        </mxCell>
        <mxCell id="oNOvtMG3czTlzHMHdK3j-36" value="" style="edgeStyle=orthogonalEdgeStyle;rounded=0;orthogonalLoop=1;jettySize=auto;html=1;endArrow=classic;endFill=1;" parent="1" source="oNOvtMG3czTlzHMHdK3j-20" target="oNOvtMG3czTlzHMHdK3j-2" edge="1">
          <mxGeometry relative="1" as="geometry" />
        </mxCell>
        <mxCell id="oNOvtMG3czTlzHMHdK3j-20" value="" style="shape=table;startSize=0;container=1;collapsible=0;childLayout=tableLayout;fontSize=16;fillColor=none;" parent="1" vertex="1">
          <mxGeometry x="190" y="110" width="50" height="50" as="geometry" />
        </mxCell>
        <mxCell id="oNOvtMG3czTlzHMHdK3j-21" value="" style="shape=tableRow;horizontal=0;startSize=0;swimlaneHead=0;swimlaneBody=0;strokeColor=inherit;top=0;left=0;bottom=0;right=0;collapsible=0;dropTarget=0;fillColor=none;points=[[0,0.5],[1,0.5]];portConstraint=eastwest;fontSize=16;" parent="oNOvtMG3czTlzHMHdK3j-20" vertex="1">
          <mxGeometry width="50" height="17" as="geometry" />
        </mxCell>
        <mxCell id="oNOvtMG3czTlzHMHdK3j-22" value="" style="shape=partialRectangle;html=1;whiteSpace=wrap;connectable=0;strokeColor=inherit;overflow=hidden;fillColor=none;top=0;left=0;bottom=0;right=0;pointerEvents=1;fontSize=16;" parent="oNOvtMG3czTlzHMHdK3j-21" vertex="1">
          <mxGeometry width="17" height="17" as="geometry">
            <mxRectangle width="17" height="17" as="alternateBounds" />
          </mxGeometry>
        </mxCell>
        <mxCell id="oNOvtMG3czTlzHMHdK3j-23" value="" style="shape=partialRectangle;html=1;whiteSpace=wrap;connectable=0;strokeColor=inherit;overflow=hidden;fillColor=none;top=0;left=0;bottom=0;right=0;pointerEvents=1;fontSize=16;" parent="oNOvtMG3czTlzHMHdK3j-21" vertex="1">
          <mxGeometry x="17" width="16" height="17" as="geometry">
            <mxRectangle width="16" height="17" as="alternateBounds" />
          </mxGeometry>
        </mxCell>
        <mxCell id="oNOvtMG3czTlzHMHdK3j-24" value="" style="shape=partialRectangle;html=1;whiteSpace=wrap;connectable=0;strokeColor=inherit;overflow=hidden;fillColor=none;top=0;left=0;bottom=0;right=0;pointerEvents=1;fontSize=16;" parent="oNOvtMG3czTlzHMHdK3j-21" vertex="1">
          <mxGeometry x="33" width="17" height="17" as="geometry">
            <mxRectangle width="17" height="17" as="alternateBounds" />
          </mxGeometry>
        </mxCell>
        <mxCell id="oNOvtMG3czTlzHMHdK3j-25" value="" style="shape=tableRow;horizontal=0;startSize=0;swimlaneHead=0;swimlaneBody=0;strokeColor=inherit;top=0;left=0;bottom=0;right=0;collapsible=0;dropTarget=0;fillColor=none;points=[[0,0.5],[1,0.5]];portConstraint=eastwest;fontSize=16;" parent="oNOvtMG3czTlzHMHdK3j-20" vertex="1">
          <mxGeometry y="17" width="50" height="16" as="geometry" />
        </mxCell>
        <mxCell id="oNOvtMG3czTlzHMHdK3j-26" value="" style="shape=partialRectangle;html=1;whiteSpace=wrap;connectable=0;strokeColor=inherit;overflow=hidden;fillColor=none;top=0;left=0;bottom=0;right=0;pointerEvents=1;fontSize=16;" parent="oNOvtMG3czTlzHMHdK3j-25" vertex="1">
          <mxGeometry width="17" height="16" as="geometry">
            <mxRectangle width="17" height="16" as="alternateBounds" />
          </mxGeometry>
        </mxCell>
        <mxCell id="oNOvtMG3czTlzHMHdK3j-27" value="" style="shape=partialRectangle;html=1;whiteSpace=wrap;connectable=0;strokeColor=inherit;overflow=hidden;fillColor=none;top=0;left=0;bottom=0;right=0;pointerEvents=1;fontSize=16;" parent="oNOvtMG3czTlzHMHdK3j-25" vertex="1">
          <mxGeometry x="17" width="16" height="16" as="geometry">
            <mxRectangle width="16" height="16" as="alternateBounds" />
          </mxGeometry>
        </mxCell>
        <mxCell id="oNOvtMG3czTlzHMHdK3j-28" value="" style="shape=partialRectangle;html=1;whiteSpace=wrap;connectable=0;strokeColor=inherit;overflow=hidden;fillColor=none;top=0;left=0;bottom=0;right=0;pointerEvents=1;fontSize=16;" parent="oNOvtMG3czTlzHMHdK3j-25" vertex="1">
          <mxGeometry x="33" width="17" height="16" as="geometry">
            <mxRectangle width="17" height="16" as="alternateBounds" />
          </mxGeometry>
        </mxCell>
        <mxCell id="oNOvtMG3czTlzHMHdK3j-29" value="" style="shape=tableRow;horizontal=0;startSize=0;swimlaneHead=0;swimlaneBody=0;strokeColor=inherit;top=0;left=0;bottom=0;right=0;collapsible=0;dropTarget=0;fillColor=none;points=[[0,0.5],[1,0.5]];portConstraint=eastwest;fontSize=16;" parent="oNOvtMG3czTlzHMHdK3j-20" vertex="1">
          <mxGeometry y="33" width="50" height="17" as="geometry" />
        </mxCell>
        <mxCell id="oNOvtMG3czTlzHMHdK3j-30" value="" style="shape=partialRectangle;html=1;whiteSpace=wrap;connectable=0;strokeColor=inherit;overflow=hidden;fillColor=none;top=0;left=0;bottom=0;right=0;pointerEvents=1;fontSize=16;" parent="oNOvtMG3czTlzHMHdK3j-29" vertex="1">
          <mxGeometry width="17" height="17" as="geometry">
            <mxRectangle width="17" height="17" as="alternateBounds" />
          </mxGeometry>
        </mxCell>
        <mxCell id="oNOvtMG3czTlzHMHdK3j-31" value="" style="shape=partialRectangle;html=1;whiteSpace=wrap;connectable=0;strokeColor=inherit;overflow=hidden;fillColor=none;top=0;left=0;bottom=0;right=0;pointerEvents=1;fontSize=16;" parent="oNOvtMG3czTlzHMHdK3j-29" vertex="1">
          <mxGeometry x="17" width="16" height="17" as="geometry">
            <mxRectangle width="16" height="17" as="alternateBounds" />
          </mxGeometry>
        </mxCell>
        <mxCell id="oNOvtMG3czTlzHMHdK3j-32" value="" style="shape=partialRectangle;html=1;whiteSpace=wrap;connectable=0;strokeColor=inherit;overflow=hidden;fillColor=none;top=0;left=0;bottom=0;right=0;pointerEvents=1;fontSize=16;" parent="oNOvtMG3czTlzHMHdK3j-29" vertex="1">
          <mxGeometry x="33" width="17" height="17" as="geometry">
            <mxRectangle width="17" height="17" as="alternateBounds" />
          </mxGeometry>
        </mxCell>
        <mxCell id="oNOvtMG3czTlzHMHdK3j-37" value="&lt;font face=&quot;宋体&quot; style=&quot;font-size: 16px;&quot;&gt;查询&lt;/font&gt;&lt;font style=&quot;font-size: 16px;&quot; face=&quot;Times New Roman&quot;&gt;(Q)&lt;/font&gt;" style="text;html=1;align=center;verticalAlign=middle;whiteSpace=wrap;rounded=0;" parent="1" vertex="1">
          <mxGeometry x="105" y="80" width="80" height="30" as="geometry" />
        </mxCell>
        <mxCell id="oNOvtMG3czTlzHMHdK3j-38" value="&lt;font face=&quot;宋体&quot; style=&quot;font-size: 16px;&quot;&gt;键&lt;/font&gt;&lt;font style=&quot;font-size: 16px;&quot; face=&quot;Times New Roman&quot;&gt;(K)&lt;/font&gt;" style="text;html=1;align=center;verticalAlign=middle;whiteSpace=wrap;rounded=0;" parent="1" vertex="1">
          <mxGeometry x="190" y="80" width="50" height="30" as="geometry" />
        </mxCell>
        <mxCell id="oNOvtMG3czTlzHMHdK3j-42" style="edgeStyle=orthogonalEdgeStyle;rounded=0;orthogonalLoop=1;jettySize=auto;html=1;exitX=0.5;exitY=1;exitDx=0;exitDy=0;" parent="1" source="oNOvtMG3czTlzHMHdK3j-39" target="oNOvtMG3czTlzHMHdK3j-40" edge="1">
          <mxGeometry relative="1" as="geometry" />
        </mxCell>
        <mxCell id="oNOvtMG3czTlzHMHdK3j-39" value="&lt;span style=&quot;font-size: 14px;&quot;&gt;&lt;font face=&quot;宋体&quot;&gt;缩放&lt;/font&gt;&lt;/span&gt;&lt;div&gt;&lt;font face=&quot;Times New Roman&quot;&gt;&lt;span style=&quot;font-size: 14px;&quot;&gt;(Scale)&lt;/span&gt;&lt;/font&gt;&lt;/div&gt;" style="rounded=0;whiteSpace=wrap;html=1;align=center;verticalAlign=middle;fontFamily=Helvetica;fontSize=12;fillColor=#fad9d5;strokeColor=#ae4132;" parent="1" vertex="1">
          <mxGeometry x="140" y="260" width="80" height="40" as="geometry" />
        </mxCell>
        <mxCell id="oNOvtMG3czTlzHMHdK3j-44" style="edgeStyle=orthogonalEdgeStyle;rounded=0;orthogonalLoop=1;jettySize=auto;html=1;exitX=0.5;exitY=1;exitDx=0;exitDy=0;entryX=0.5;entryY=0;entryDx=0;entryDy=0;" parent="1" source="oNOvtMG3czTlzHMHdK3j-40" target="oNOvtMG3czTlzHMHdK3j-43" edge="1">
          <mxGeometry relative="1" as="geometry" />
        </mxCell>
        <mxCell id="oNOvtMG3czTlzHMHdK3j-40" value="&lt;font face=&quot;宋体&quot; style=&quot;font-size: 14px;&quot;&gt;掩码&lt;/font&gt;&lt;div&gt;&lt;font style=&quot;font-size: 14px;&quot; face=&quot;Times New Roman&quot;&gt;(Mask)&lt;/font&gt;&lt;/div&gt;" style="rounded=0;whiteSpace=wrap;html=1;align=center;verticalAlign=middle;fontFamily=Helvetica;fontSize=12;fillColor=#fad7ac;strokeColor=#b46504;" parent="1" vertex="1">
          <mxGeometry x="140" y="320" width="80" height="40" as="geometry" />
        </mxCell>
        <mxCell id="oNOvtMG3czTlzHMHdK3j-62" style="edgeStyle=orthogonalEdgeStyle;rounded=0;orthogonalLoop=1;jettySize=auto;html=1;exitX=0.5;exitY=1;exitDx=0;exitDy=0;entryX=0.5;entryY=1;entryDx=0;entryDy=0;" parent="1" source="oNOvtMG3czTlzHMHdK3j-43" target="oNOvtMG3czTlzHMHdK3j-45" edge="1">
          <mxGeometry relative="1" as="geometry" />
        </mxCell>
        <mxCell id="oNOvtMG3czTlzHMHdK3j-43" value="&lt;span style=&quot;font-size: 14px;&quot;&gt;&lt;font face=&quot;宋体&quot;&gt;归一化&lt;/font&gt;&lt;font face=&quot;Times New Roman&quot;&gt;(Softmax)&lt;/font&gt;&lt;/span&gt;" style="rounded=0;whiteSpace=wrap;html=1;align=center;verticalAlign=middle;fontFamily=Helvetica;fontSize=12;fillColor=#ffcccc;strokeColor=#36393d;" parent="1" vertex="1">
          <mxGeometry x="140" y="380" width="80" height="40" as="geometry" />
        </mxCell>
        <mxCell id="oNOvtMG3czTlzHMHdK3j-84" value="" style="edgeStyle=orthogonalEdgeStyle;rounded=0;orthogonalLoop=1;jettySize=auto;html=1;entryX=0.502;entryY=1;entryDx=0;entryDy=0;entryPerimeter=0;" parent="1" source="oNOvtMG3czTlzHMHdK3j-45" target="oNOvtMG3czTlzHMHdK3j-72" edge="1">
          <mxGeometry relative="1" as="geometry">
            <Array as="points">
              <mxPoint x="355" y="250" />
              <mxPoint x="355" y="250" />
            </Array>
          </mxGeometry>
        </mxCell>
        <mxCell id="oNOvtMG3czTlzHMHdK3j-45" value="&lt;font style=&quot;font-size: 14px;&quot; face=&quot;宋体&quot;&gt;矩阵乘&lt;/font&gt;&lt;font style=&quot;font-size: 14px;&quot; face=&quot;Times New Roman&quot;&gt;(MatMul)&lt;/font&gt;" style="rounded=0;whiteSpace=wrap;html=1;align=center;verticalAlign=middle;fontFamily=Helvetica;fontSize=12;fillColor=#b1ddf0;strokeColor=#10739e;" parent="1" vertex="1">
          <mxGeometry x="315" y="280" width="80" height="40" as="geometry" />
        </mxCell>
        <mxCell id="oNOvtMG3czTlzHMHdK3j-61" value="" style="edgeStyle=orthogonalEdgeStyle;rounded=0;orthogonalLoop=1;jettySize=auto;html=1;entryX=0.5;entryY=1;entryDx=0;entryDy=0;" parent="1" source="oNOvtMG3czTlzHMHdK3j-47" target="oNOvtMG3czTlzHMHdK3j-45" edge="1">
          <mxGeometry relative="1" as="geometry">
            <Array as="points">
              <mxPoint x="285" y="380" />
              <mxPoint x="355" y="380" />
            </Array>
          </mxGeometry>
        </mxCell>
        <mxCell id="oNOvtMG3czTlzHMHdK3j-47" value="" style="shape=table;startSize=0;container=1;collapsible=0;childLayout=tableLayout;fontSize=16;fillColor=none;" parent="1" vertex="1">
          <mxGeometry x="260" y="110" width="50" height="50" as="geometry" />
        </mxCell>
        <mxCell id="oNOvtMG3czTlzHMHdK3j-48" value="" style="shape=tableRow;horizontal=0;startSize=0;swimlaneHead=0;swimlaneBody=0;strokeColor=inherit;top=0;left=0;bottom=0;right=0;collapsible=0;dropTarget=0;fillColor=none;points=[[0,0.5],[1,0.5]];portConstraint=eastwest;fontSize=16;" parent="oNOvtMG3czTlzHMHdK3j-47" vertex="1">
          <mxGeometry width="50" height="17" as="geometry" />
        </mxCell>
        <mxCell id="oNOvtMG3czTlzHMHdK3j-49" value="" style="shape=partialRectangle;html=1;whiteSpace=wrap;connectable=0;strokeColor=inherit;overflow=hidden;fillColor=none;top=0;left=0;bottom=0;right=0;pointerEvents=1;fontSize=16;" parent="oNOvtMG3czTlzHMHdK3j-48" vertex="1">
          <mxGeometry width="17" height="17" as="geometry">
            <mxRectangle width="17" height="17" as="alternateBounds" />
          </mxGeometry>
        </mxCell>
        <mxCell id="oNOvtMG3czTlzHMHdK3j-50" value="" style="shape=partialRectangle;html=1;whiteSpace=wrap;connectable=0;strokeColor=inherit;overflow=hidden;fillColor=none;top=0;left=0;bottom=0;right=0;pointerEvents=1;fontSize=16;" parent="oNOvtMG3czTlzHMHdK3j-48" vertex="1">
          <mxGeometry x="17" width="16" height="17" as="geometry">
            <mxRectangle width="16" height="17" as="alternateBounds" />
          </mxGeometry>
        </mxCell>
        <mxCell id="oNOvtMG3czTlzHMHdK3j-51" value="" style="shape=partialRectangle;html=1;whiteSpace=wrap;connectable=0;strokeColor=inherit;overflow=hidden;fillColor=none;top=0;left=0;bottom=0;right=0;pointerEvents=1;fontSize=16;" parent="oNOvtMG3czTlzHMHdK3j-48" vertex="1">
          <mxGeometry x="33" width="17" height="17" as="geometry">
            <mxRectangle width="17" height="17" as="alternateBounds" />
          </mxGeometry>
        </mxCell>
        <mxCell id="oNOvtMG3czTlzHMHdK3j-52" value="" style="shape=tableRow;horizontal=0;startSize=0;swimlaneHead=0;swimlaneBody=0;strokeColor=inherit;top=0;left=0;bottom=0;right=0;collapsible=0;dropTarget=0;fillColor=none;points=[[0,0.5],[1,0.5]];portConstraint=eastwest;fontSize=16;" parent="oNOvtMG3czTlzHMHdK3j-47" vertex="1">
          <mxGeometry y="17" width="50" height="16" as="geometry" />
        </mxCell>
        <mxCell id="oNOvtMG3czTlzHMHdK3j-53" value="" style="shape=partialRectangle;html=1;whiteSpace=wrap;connectable=0;strokeColor=inherit;overflow=hidden;fillColor=none;top=0;left=0;bottom=0;right=0;pointerEvents=1;fontSize=16;" parent="oNOvtMG3czTlzHMHdK3j-52" vertex="1">
          <mxGeometry width="17" height="16" as="geometry">
            <mxRectangle width="17" height="16" as="alternateBounds" />
          </mxGeometry>
        </mxCell>
        <mxCell id="oNOvtMG3czTlzHMHdK3j-54" value="" style="shape=partialRectangle;html=1;whiteSpace=wrap;connectable=0;strokeColor=inherit;overflow=hidden;fillColor=none;top=0;left=0;bottom=0;right=0;pointerEvents=1;fontSize=16;" parent="oNOvtMG3czTlzHMHdK3j-52" vertex="1">
          <mxGeometry x="17" width="16" height="16" as="geometry">
            <mxRectangle width="16" height="16" as="alternateBounds" />
          </mxGeometry>
        </mxCell>
        <mxCell id="oNOvtMG3czTlzHMHdK3j-55" value="" style="shape=partialRectangle;html=1;whiteSpace=wrap;connectable=0;strokeColor=inherit;overflow=hidden;fillColor=none;top=0;left=0;bottom=0;right=0;pointerEvents=1;fontSize=16;" parent="oNOvtMG3czTlzHMHdK3j-52" vertex="1">
          <mxGeometry x="33" width="17" height="16" as="geometry">
            <mxRectangle width="17" height="16" as="alternateBounds" />
          </mxGeometry>
        </mxCell>
        <mxCell id="oNOvtMG3czTlzHMHdK3j-56" value="" style="shape=tableRow;horizontal=0;startSize=0;swimlaneHead=0;swimlaneBody=0;strokeColor=inherit;top=0;left=0;bottom=0;right=0;collapsible=0;dropTarget=0;fillColor=none;points=[[0,0.5],[1,0.5]];portConstraint=eastwest;fontSize=16;" parent="oNOvtMG3czTlzHMHdK3j-47" vertex="1">
          <mxGeometry y="33" width="50" height="17" as="geometry" />
        </mxCell>
        <mxCell id="oNOvtMG3czTlzHMHdK3j-57" value="" style="shape=partialRectangle;html=1;whiteSpace=wrap;connectable=0;strokeColor=inherit;overflow=hidden;fillColor=none;top=0;left=0;bottom=0;right=0;pointerEvents=1;fontSize=16;" parent="oNOvtMG3czTlzHMHdK3j-56" vertex="1">
          <mxGeometry width="17" height="17" as="geometry">
            <mxRectangle width="17" height="17" as="alternateBounds" />
          </mxGeometry>
        </mxCell>
        <mxCell id="oNOvtMG3czTlzHMHdK3j-58" value="" style="shape=partialRectangle;html=1;whiteSpace=wrap;connectable=0;strokeColor=inherit;overflow=hidden;fillColor=none;top=0;left=0;bottom=0;right=0;pointerEvents=1;fontSize=16;" parent="oNOvtMG3czTlzHMHdK3j-56" vertex="1">
          <mxGeometry x="17" width="16" height="17" as="geometry">
            <mxRectangle width="16" height="17" as="alternateBounds" />
          </mxGeometry>
        </mxCell>
        <mxCell id="oNOvtMG3czTlzHMHdK3j-59" value="" style="shape=partialRectangle;html=1;whiteSpace=wrap;connectable=0;strokeColor=inherit;overflow=hidden;fillColor=none;top=0;left=0;bottom=0;right=0;pointerEvents=1;fontSize=16;" parent="oNOvtMG3czTlzHMHdK3j-56" vertex="1">
          <mxGeometry x="33" width="17" height="17" as="geometry">
            <mxRectangle width="17" height="17" as="alternateBounds" />
          </mxGeometry>
        </mxCell>
        <mxCell id="oNOvtMG3czTlzHMHdK3j-60" value="&lt;font face=&quot;宋体&quot; style=&quot;font-size: 16px;&quot;&gt;值&lt;/font&gt;&lt;font style=&quot;font-size: 16px;&quot; face=&quot;Times New Roman&quot;&gt;(V)&lt;/font&gt;" style="text;html=1;align=center;verticalAlign=middle;whiteSpace=wrap;rounded=0;" parent="1" vertex="1">
          <mxGeometry x="260" y="80" width="50" height="30" as="geometry" />
        </mxCell>
        <mxCell id="oNOvtMG3czTlzHMHdK3j-63" value="" style="shape=table;startSize=0;container=1;collapsible=0;childLayout=tableLayout;fontSize=16;fillColor=none;" parent="1" vertex="1">
          <mxGeometry x="330" y="110" width="50" height="50" as="geometry" />
        </mxCell>
        <mxCell id="oNOvtMG3czTlzHMHdK3j-64" value="" style="shape=tableRow;horizontal=0;startSize=0;swimlaneHead=0;swimlaneBody=0;strokeColor=inherit;top=0;left=0;bottom=0;right=0;collapsible=0;dropTarget=0;fillColor=none;points=[[0,0.5],[1,0.5]];portConstraint=eastwest;fontSize=16;" parent="oNOvtMG3czTlzHMHdK3j-63" vertex="1">
          <mxGeometry width="50" height="17" as="geometry" />
        </mxCell>
        <mxCell id="oNOvtMG3czTlzHMHdK3j-65" value="" style="shape=partialRectangle;html=1;whiteSpace=wrap;connectable=0;strokeColor=inherit;overflow=hidden;fillColor=none;top=0;left=0;bottom=0;right=0;pointerEvents=1;fontSize=16;" parent="oNOvtMG3czTlzHMHdK3j-64" vertex="1">
          <mxGeometry width="17" height="17" as="geometry">
            <mxRectangle width="17" height="17" as="alternateBounds" />
          </mxGeometry>
        </mxCell>
        <mxCell id="oNOvtMG3czTlzHMHdK3j-66" value="" style="shape=partialRectangle;html=1;whiteSpace=wrap;connectable=0;strokeColor=inherit;overflow=hidden;fillColor=none;top=0;left=0;bottom=0;right=0;pointerEvents=1;fontSize=16;" parent="oNOvtMG3czTlzHMHdK3j-64" vertex="1">
          <mxGeometry x="17" width="16" height="17" as="geometry">
            <mxRectangle width="16" height="17" as="alternateBounds" />
          </mxGeometry>
        </mxCell>
        <mxCell id="oNOvtMG3czTlzHMHdK3j-67" value="" style="shape=partialRectangle;html=1;whiteSpace=wrap;connectable=0;strokeColor=inherit;overflow=hidden;fillColor=none;top=0;left=0;bottom=0;right=0;pointerEvents=1;fontSize=16;" parent="oNOvtMG3czTlzHMHdK3j-64" vertex="1">
          <mxGeometry x="33" width="17" height="17" as="geometry">
            <mxRectangle width="17" height="17" as="alternateBounds" />
          </mxGeometry>
        </mxCell>
        <mxCell id="oNOvtMG3czTlzHMHdK3j-68" value="" style="shape=tableRow;horizontal=0;startSize=0;swimlaneHead=0;swimlaneBody=0;strokeColor=inherit;top=0;left=0;bottom=0;right=0;collapsible=0;dropTarget=0;fillColor=none;points=[[0,0.5],[1,0.5]];portConstraint=eastwest;fontSize=16;" parent="oNOvtMG3czTlzHMHdK3j-63" vertex="1">
          <mxGeometry y="17" width="50" height="16" as="geometry" />
        </mxCell>
        <mxCell id="oNOvtMG3czTlzHMHdK3j-69" value="" style="shape=partialRectangle;html=1;whiteSpace=wrap;connectable=0;strokeColor=inherit;overflow=hidden;fillColor=none;top=0;left=0;bottom=0;right=0;pointerEvents=1;fontSize=16;" parent="oNOvtMG3czTlzHMHdK3j-68" vertex="1">
          <mxGeometry width="17" height="16" as="geometry">
            <mxRectangle width="17" height="16" as="alternateBounds" />
          </mxGeometry>
        </mxCell>
        <mxCell id="oNOvtMG3czTlzHMHdK3j-70" value="" style="shape=partialRectangle;html=1;whiteSpace=wrap;connectable=0;strokeColor=inherit;overflow=hidden;fillColor=none;top=0;left=0;bottom=0;right=0;pointerEvents=1;fontSize=16;" parent="oNOvtMG3czTlzHMHdK3j-68" vertex="1">
          <mxGeometry x="17" width="16" height="16" as="geometry">
            <mxRectangle width="16" height="16" as="alternateBounds" />
          </mxGeometry>
        </mxCell>
        <mxCell id="oNOvtMG3czTlzHMHdK3j-71" value="" style="shape=partialRectangle;html=1;whiteSpace=wrap;connectable=0;strokeColor=inherit;overflow=hidden;fillColor=none;top=0;left=0;bottom=0;right=0;pointerEvents=1;fontSize=16;" parent="oNOvtMG3czTlzHMHdK3j-68" vertex="1">
          <mxGeometry x="33" width="17" height="16" as="geometry">
            <mxRectangle width="17" height="16" as="alternateBounds" />
          </mxGeometry>
        </mxCell>
        <mxCell id="oNOvtMG3czTlzHMHdK3j-72" value="" style="shape=tableRow;horizontal=0;startSize=0;swimlaneHead=0;swimlaneBody=0;strokeColor=inherit;top=0;left=0;bottom=0;right=0;collapsible=0;dropTarget=0;fillColor=none;points=[[0,0.5],[1,0.5]];portConstraint=eastwest;fontSize=16;" parent="oNOvtMG3czTlzHMHdK3j-63" vertex="1">
          <mxGeometry y="33" width="50" height="17" as="geometry" />
        </mxCell>
        <mxCell id="oNOvtMG3czTlzHMHdK3j-73" value="" style="shape=partialRectangle;html=1;whiteSpace=wrap;connectable=0;strokeColor=inherit;overflow=hidden;fillColor=none;top=0;left=0;bottom=0;right=0;pointerEvents=1;fontSize=16;" parent="oNOvtMG3czTlzHMHdK3j-72" vertex="1">
          <mxGeometry width="17" height="17" as="geometry">
            <mxRectangle width="17" height="17" as="alternateBounds" />
          </mxGeometry>
        </mxCell>
        <mxCell id="oNOvtMG3czTlzHMHdK3j-74" value="" style="shape=partialRectangle;html=1;whiteSpace=wrap;connectable=0;strokeColor=inherit;overflow=hidden;fillColor=none;top=0;left=0;bottom=0;right=0;pointerEvents=1;fontSize=16;" parent="oNOvtMG3czTlzHMHdK3j-72" vertex="1">
          <mxGeometry x="17" width="16" height="17" as="geometry">
            <mxRectangle width="16" height="17" as="alternateBounds" />
          </mxGeometry>
        </mxCell>
        <mxCell id="oNOvtMG3czTlzHMHdK3j-75" value="" style="shape=partialRectangle;html=1;whiteSpace=wrap;connectable=0;strokeColor=inherit;overflow=hidden;fillColor=none;top=0;left=0;bottom=0;right=0;pointerEvents=1;fontSize=16;" parent="oNOvtMG3czTlzHMHdK3j-72" vertex="1">
          <mxGeometry x="33" width="17" height="17" as="geometry">
            <mxRectangle width="17" height="17" as="alternateBounds" />
          </mxGeometry>
        </mxCell>
        <mxCell id="oNOvtMG3czTlzHMHdK3j-76" value="&lt;font face=&quot;宋体&quot; style=&quot;font-size: 16px;&quot;&gt;输出&lt;/font&gt;&lt;font style=&quot;font-size: 16px;&quot; face=&quot;Times New Roman&quot;&gt;(Z)&lt;/font&gt;" style="text;html=1;align=center;verticalAlign=middle;whiteSpace=wrap;rounded=0;" parent="1" vertex="1">
          <mxGeometry x="325" y="80" width="60" height="30" as="geometry" />
        </mxCell>
        <mxCell id="nSlpM6zE50K-tXMGbX81-2" value="&lt;font face=&quot;宋体&quot; style=&quot;font-size: 16px;&quot;&gt;&lt;b&gt;缩放点积注意力&lt;/b&gt;&lt;/font&gt;" style="text;html=1;align=center;verticalAlign=middle;whiteSpace=wrap;rounded=0;" parent="1" vertex="1">
          <mxGeometry x="157.5" y="450" width="200" height="30" as="geometry" />
        </mxCell>
        <mxCell id="nSlpM6zE50K-tXMGbX81-91" value="" style="edgeStyle=orthogonalEdgeStyle;rounded=0;orthogonalLoop=1;jettySize=auto;html=1;" parent="1" source="nSlpM6zE50K-tXMGbX81-45" target="nSlpM6zE50K-tXMGbX81-87" edge="1">
          <mxGeometry relative="1" as="geometry" />
        </mxCell>
        <mxCell id="nSlpM6zE50K-tXMGbX81-45" value="" style="shape=table;startSize=0;container=1;collapsible=0;childLayout=tableLayout;fontSize=16;fillColor=none;" parent="1" vertex="1">
          <mxGeometry x="475" y="110" width="50" height="50" as="geometry" />
        </mxCell>
        <mxCell id="nSlpM6zE50K-tXMGbX81-46" value="" style="shape=tableRow;horizontal=0;startSize=0;swimlaneHead=0;swimlaneBody=0;strokeColor=inherit;top=0;left=0;bottom=0;right=0;collapsible=0;dropTarget=0;fillColor=none;points=[[0,0.5],[1,0.5]];portConstraint=eastwest;fontSize=16;" parent="nSlpM6zE50K-tXMGbX81-45" vertex="1">
          <mxGeometry width="50" height="17" as="geometry" />
        </mxCell>
        <mxCell id="nSlpM6zE50K-tXMGbX81-47" value="" style="shape=partialRectangle;html=1;whiteSpace=wrap;connectable=0;strokeColor=inherit;overflow=hidden;fillColor=none;top=0;left=0;bottom=0;right=0;pointerEvents=1;fontSize=16;" parent="nSlpM6zE50K-tXMGbX81-46" vertex="1">
          <mxGeometry width="17" height="17" as="geometry">
            <mxRectangle width="17" height="17" as="alternateBounds" />
          </mxGeometry>
        </mxCell>
        <mxCell id="nSlpM6zE50K-tXMGbX81-48" value="" style="shape=partialRectangle;html=1;whiteSpace=wrap;connectable=0;strokeColor=inherit;overflow=hidden;fillColor=none;top=0;left=0;bottom=0;right=0;pointerEvents=1;fontSize=16;" parent="nSlpM6zE50K-tXMGbX81-46" vertex="1">
          <mxGeometry x="17" width="16" height="17" as="geometry">
            <mxRectangle width="16" height="17" as="alternateBounds" />
          </mxGeometry>
        </mxCell>
        <mxCell id="nSlpM6zE50K-tXMGbX81-49" value="" style="shape=partialRectangle;html=1;whiteSpace=wrap;connectable=0;strokeColor=inherit;overflow=hidden;fillColor=none;top=0;left=0;bottom=0;right=0;pointerEvents=1;fontSize=16;" parent="nSlpM6zE50K-tXMGbX81-46" vertex="1">
          <mxGeometry x="33" width="17" height="17" as="geometry">
            <mxRectangle width="17" height="17" as="alternateBounds" />
          </mxGeometry>
        </mxCell>
        <mxCell id="nSlpM6zE50K-tXMGbX81-50" value="" style="shape=tableRow;horizontal=0;startSize=0;swimlaneHead=0;swimlaneBody=0;strokeColor=inherit;top=0;left=0;bottom=0;right=0;collapsible=0;dropTarget=0;fillColor=none;points=[[0,0.5],[1,0.5]];portConstraint=eastwest;fontSize=16;" parent="nSlpM6zE50K-tXMGbX81-45" vertex="1">
          <mxGeometry y="17" width="50" height="16" as="geometry" />
        </mxCell>
        <mxCell id="nSlpM6zE50K-tXMGbX81-51" value="" style="shape=partialRectangle;html=1;whiteSpace=wrap;connectable=0;strokeColor=inherit;overflow=hidden;fillColor=none;top=0;left=0;bottom=0;right=0;pointerEvents=1;fontSize=16;" parent="nSlpM6zE50K-tXMGbX81-50" vertex="1">
          <mxGeometry width="17" height="16" as="geometry">
            <mxRectangle width="17" height="16" as="alternateBounds" />
          </mxGeometry>
        </mxCell>
        <mxCell id="nSlpM6zE50K-tXMGbX81-52" value="" style="shape=partialRectangle;html=1;whiteSpace=wrap;connectable=0;strokeColor=inherit;overflow=hidden;fillColor=none;top=0;left=0;bottom=0;right=0;pointerEvents=1;fontSize=16;" parent="nSlpM6zE50K-tXMGbX81-50" vertex="1">
          <mxGeometry x="17" width="16" height="16" as="geometry">
            <mxRectangle width="16" height="16" as="alternateBounds" />
          </mxGeometry>
        </mxCell>
        <mxCell id="nSlpM6zE50K-tXMGbX81-53" value="" style="shape=partialRectangle;html=1;whiteSpace=wrap;connectable=0;strokeColor=inherit;overflow=hidden;fillColor=none;top=0;left=0;bottom=0;right=0;pointerEvents=1;fontSize=16;" parent="nSlpM6zE50K-tXMGbX81-50" vertex="1">
          <mxGeometry x="33" width="17" height="16" as="geometry">
            <mxRectangle width="17" height="16" as="alternateBounds" />
          </mxGeometry>
        </mxCell>
        <mxCell id="nSlpM6zE50K-tXMGbX81-54" value="" style="shape=tableRow;horizontal=0;startSize=0;swimlaneHead=0;swimlaneBody=0;strokeColor=inherit;top=0;left=0;bottom=0;right=0;collapsible=0;dropTarget=0;fillColor=none;points=[[0,0.5],[1,0.5]];portConstraint=eastwest;fontSize=16;" parent="nSlpM6zE50K-tXMGbX81-45" vertex="1">
          <mxGeometry y="33" width="50" height="17" as="geometry" />
        </mxCell>
        <mxCell id="nSlpM6zE50K-tXMGbX81-55" value="" style="shape=partialRectangle;html=1;whiteSpace=wrap;connectable=0;strokeColor=inherit;overflow=hidden;fillColor=none;top=0;left=0;bottom=0;right=0;pointerEvents=1;fontSize=16;" parent="nSlpM6zE50K-tXMGbX81-54" vertex="1">
          <mxGeometry width="17" height="17" as="geometry">
            <mxRectangle width="17" height="17" as="alternateBounds" />
          </mxGeometry>
        </mxCell>
        <mxCell id="nSlpM6zE50K-tXMGbX81-56" value="" style="shape=partialRectangle;html=1;whiteSpace=wrap;connectable=0;strokeColor=inherit;overflow=hidden;fillColor=none;top=0;left=0;bottom=0;right=0;pointerEvents=1;fontSize=16;" parent="nSlpM6zE50K-tXMGbX81-54" vertex="1">
          <mxGeometry x="17" width="16" height="17" as="geometry">
            <mxRectangle width="16" height="17" as="alternateBounds" />
          </mxGeometry>
        </mxCell>
        <mxCell id="nSlpM6zE50K-tXMGbX81-57" value="" style="shape=partialRectangle;html=1;whiteSpace=wrap;connectable=0;strokeColor=inherit;overflow=hidden;fillColor=none;top=0;left=0;bottom=0;right=0;pointerEvents=1;fontSize=16;" parent="nSlpM6zE50K-tXMGbX81-54" vertex="1">
          <mxGeometry x="33" width="17" height="17" as="geometry">
            <mxRectangle width="17" height="17" as="alternateBounds" />
          </mxGeometry>
        </mxCell>
        <mxCell id="nSlpM6zE50K-tXMGbX81-92" value="" style="edgeStyle=orthogonalEdgeStyle;rounded=0;orthogonalLoop=1;jettySize=auto;html=1;" parent="1" source="nSlpM6zE50K-tXMGbX81-58" edge="1">
          <mxGeometry relative="1" as="geometry">
            <mxPoint x="610" y="250" as="targetPoint" />
          </mxGeometry>
        </mxCell>
        <mxCell id="nSlpM6zE50K-tXMGbX81-58" value="" style="shape=table;startSize=0;container=1;collapsible=0;childLayout=tableLayout;fontSize=16;fillColor=none;" parent="1" vertex="1">
          <mxGeometry x="585" y="110" width="50" height="50" as="geometry" />
        </mxCell>
        <mxCell id="nSlpM6zE50K-tXMGbX81-59" value="" style="shape=tableRow;horizontal=0;startSize=0;swimlaneHead=0;swimlaneBody=0;strokeColor=inherit;top=0;left=0;bottom=0;right=0;collapsible=0;dropTarget=0;fillColor=none;points=[[0,0.5],[1,0.5]];portConstraint=eastwest;fontSize=16;" parent="nSlpM6zE50K-tXMGbX81-58" vertex="1">
          <mxGeometry width="50" height="17" as="geometry" />
        </mxCell>
        <mxCell id="nSlpM6zE50K-tXMGbX81-60" value="" style="shape=partialRectangle;html=1;whiteSpace=wrap;connectable=0;strokeColor=inherit;overflow=hidden;fillColor=none;top=0;left=0;bottom=0;right=0;pointerEvents=1;fontSize=16;" parent="nSlpM6zE50K-tXMGbX81-59" vertex="1">
          <mxGeometry width="17" height="17" as="geometry">
            <mxRectangle width="17" height="17" as="alternateBounds" />
          </mxGeometry>
        </mxCell>
        <mxCell id="nSlpM6zE50K-tXMGbX81-61" value="" style="shape=partialRectangle;html=1;whiteSpace=wrap;connectable=0;strokeColor=inherit;overflow=hidden;fillColor=none;top=0;left=0;bottom=0;right=0;pointerEvents=1;fontSize=16;" parent="nSlpM6zE50K-tXMGbX81-59" vertex="1">
          <mxGeometry x="17" width="16" height="17" as="geometry">
            <mxRectangle width="16" height="17" as="alternateBounds" />
          </mxGeometry>
        </mxCell>
        <mxCell id="nSlpM6zE50K-tXMGbX81-62" value="" style="shape=partialRectangle;html=1;whiteSpace=wrap;connectable=0;strokeColor=inherit;overflow=hidden;fillColor=none;top=0;left=0;bottom=0;right=0;pointerEvents=1;fontSize=16;" parent="nSlpM6zE50K-tXMGbX81-59" vertex="1">
          <mxGeometry x="33" width="17" height="17" as="geometry">
            <mxRectangle width="17" height="17" as="alternateBounds" />
          </mxGeometry>
        </mxCell>
        <mxCell id="nSlpM6zE50K-tXMGbX81-63" value="" style="shape=tableRow;horizontal=0;startSize=0;swimlaneHead=0;swimlaneBody=0;strokeColor=inherit;top=0;left=0;bottom=0;right=0;collapsible=0;dropTarget=0;fillColor=none;points=[[0,0.5],[1,0.5]];portConstraint=eastwest;fontSize=16;" parent="nSlpM6zE50K-tXMGbX81-58" vertex="1">
          <mxGeometry y="17" width="50" height="16" as="geometry" />
        </mxCell>
        <mxCell id="nSlpM6zE50K-tXMGbX81-64" value="" style="shape=partialRectangle;html=1;whiteSpace=wrap;connectable=0;strokeColor=inherit;overflow=hidden;fillColor=none;top=0;left=0;bottom=0;right=0;pointerEvents=1;fontSize=16;" parent="nSlpM6zE50K-tXMGbX81-63" vertex="1">
          <mxGeometry width="17" height="16" as="geometry">
            <mxRectangle width="17" height="16" as="alternateBounds" />
          </mxGeometry>
        </mxCell>
        <mxCell id="nSlpM6zE50K-tXMGbX81-65" value="" style="shape=partialRectangle;html=1;whiteSpace=wrap;connectable=0;strokeColor=inherit;overflow=hidden;fillColor=none;top=0;left=0;bottom=0;right=0;pointerEvents=1;fontSize=16;" parent="nSlpM6zE50K-tXMGbX81-63" vertex="1">
          <mxGeometry x="17" width="16" height="16" as="geometry">
            <mxRectangle width="16" height="16" as="alternateBounds" />
          </mxGeometry>
        </mxCell>
        <mxCell id="nSlpM6zE50K-tXMGbX81-66" value="" style="shape=partialRectangle;html=1;whiteSpace=wrap;connectable=0;strokeColor=inherit;overflow=hidden;fillColor=none;top=0;left=0;bottom=0;right=0;pointerEvents=1;fontSize=16;" parent="nSlpM6zE50K-tXMGbX81-63" vertex="1">
          <mxGeometry x="33" width="17" height="16" as="geometry">
            <mxRectangle width="17" height="16" as="alternateBounds" />
          </mxGeometry>
        </mxCell>
        <mxCell id="nSlpM6zE50K-tXMGbX81-67" value="" style="shape=tableRow;horizontal=0;startSize=0;swimlaneHead=0;swimlaneBody=0;strokeColor=inherit;top=0;left=0;bottom=0;right=0;collapsible=0;dropTarget=0;fillColor=none;points=[[0,0.5],[1,0.5]];portConstraint=eastwest;fontSize=16;" parent="nSlpM6zE50K-tXMGbX81-58" vertex="1">
          <mxGeometry y="33" width="50" height="17" as="geometry" />
        </mxCell>
        <mxCell id="nSlpM6zE50K-tXMGbX81-68" value="" style="shape=partialRectangle;html=1;whiteSpace=wrap;connectable=0;strokeColor=inherit;overflow=hidden;fillColor=none;top=0;left=0;bottom=0;right=0;pointerEvents=1;fontSize=16;" parent="nSlpM6zE50K-tXMGbX81-67" vertex="1">
          <mxGeometry width="17" height="17" as="geometry">
            <mxRectangle width="17" height="17" as="alternateBounds" />
          </mxGeometry>
        </mxCell>
        <mxCell id="nSlpM6zE50K-tXMGbX81-69" value="" style="shape=partialRectangle;html=1;whiteSpace=wrap;connectable=0;strokeColor=inherit;overflow=hidden;fillColor=none;top=0;left=0;bottom=0;right=0;pointerEvents=1;fontSize=16;" parent="nSlpM6zE50K-tXMGbX81-67" vertex="1">
          <mxGeometry x="17" width="16" height="17" as="geometry">
            <mxRectangle width="16" height="17" as="alternateBounds" />
          </mxGeometry>
        </mxCell>
        <mxCell id="nSlpM6zE50K-tXMGbX81-70" value="" style="shape=partialRectangle;html=1;whiteSpace=wrap;connectable=0;strokeColor=inherit;overflow=hidden;fillColor=none;top=0;left=0;bottom=0;right=0;pointerEvents=1;fontSize=16;" parent="nSlpM6zE50K-tXMGbX81-67" vertex="1">
          <mxGeometry x="33" width="17" height="17" as="geometry">
            <mxRectangle width="17" height="17" as="alternateBounds" />
          </mxGeometry>
        </mxCell>
        <mxCell id="nSlpM6zE50K-tXMGbX81-93" value="" style="edgeStyle=orthogonalEdgeStyle;rounded=0;orthogonalLoop=1;jettySize=auto;html=1;" parent="1" source="nSlpM6zE50K-tXMGbX81-73" edge="1">
          <mxGeometry relative="1" as="geometry">
            <mxPoint x="720" y="250" as="targetPoint" />
          </mxGeometry>
        </mxCell>
        <mxCell id="nSlpM6zE50K-tXMGbX81-73" value="" style="shape=table;startSize=0;container=1;collapsible=0;childLayout=tableLayout;fontSize=16;fillColor=none;" parent="1" vertex="1">
          <mxGeometry x="695" y="110" width="50" height="50" as="geometry" />
        </mxCell>
        <mxCell id="nSlpM6zE50K-tXMGbX81-74" value="" style="shape=tableRow;horizontal=0;startSize=0;swimlaneHead=0;swimlaneBody=0;strokeColor=inherit;top=0;left=0;bottom=0;right=0;collapsible=0;dropTarget=0;fillColor=none;points=[[0,0.5],[1,0.5]];portConstraint=eastwest;fontSize=16;" parent="nSlpM6zE50K-tXMGbX81-73" vertex="1">
          <mxGeometry width="50" height="17" as="geometry" />
        </mxCell>
        <mxCell id="nSlpM6zE50K-tXMGbX81-75" value="" style="shape=partialRectangle;html=1;whiteSpace=wrap;connectable=0;strokeColor=inherit;overflow=hidden;fillColor=none;top=0;left=0;bottom=0;right=0;pointerEvents=1;fontSize=16;" parent="nSlpM6zE50K-tXMGbX81-74" vertex="1">
          <mxGeometry width="17" height="17" as="geometry">
            <mxRectangle width="17" height="17" as="alternateBounds" />
          </mxGeometry>
        </mxCell>
        <mxCell id="nSlpM6zE50K-tXMGbX81-76" value="" style="shape=partialRectangle;html=1;whiteSpace=wrap;connectable=0;strokeColor=inherit;overflow=hidden;fillColor=none;top=0;left=0;bottom=0;right=0;pointerEvents=1;fontSize=16;" parent="nSlpM6zE50K-tXMGbX81-74" vertex="1">
          <mxGeometry x="17" width="16" height="17" as="geometry">
            <mxRectangle width="16" height="17" as="alternateBounds" />
          </mxGeometry>
        </mxCell>
        <mxCell id="nSlpM6zE50K-tXMGbX81-77" value="" style="shape=partialRectangle;html=1;whiteSpace=wrap;connectable=0;strokeColor=inherit;overflow=hidden;fillColor=none;top=0;left=0;bottom=0;right=0;pointerEvents=1;fontSize=16;" parent="nSlpM6zE50K-tXMGbX81-74" vertex="1">
          <mxGeometry x="33" width="17" height="17" as="geometry">
            <mxRectangle width="17" height="17" as="alternateBounds" />
          </mxGeometry>
        </mxCell>
        <mxCell id="nSlpM6zE50K-tXMGbX81-78" value="" style="shape=tableRow;horizontal=0;startSize=0;swimlaneHead=0;swimlaneBody=0;strokeColor=inherit;top=0;left=0;bottom=0;right=0;collapsible=0;dropTarget=0;fillColor=none;points=[[0,0.5],[1,0.5]];portConstraint=eastwest;fontSize=16;" parent="nSlpM6zE50K-tXMGbX81-73" vertex="1">
          <mxGeometry y="17" width="50" height="16" as="geometry" />
        </mxCell>
        <mxCell id="nSlpM6zE50K-tXMGbX81-79" value="" style="shape=partialRectangle;html=1;whiteSpace=wrap;connectable=0;strokeColor=inherit;overflow=hidden;fillColor=none;top=0;left=0;bottom=0;right=0;pointerEvents=1;fontSize=16;" parent="nSlpM6zE50K-tXMGbX81-78" vertex="1">
          <mxGeometry width="17" height="16" as="geometry">
            <mxRectangle width="17" height="16" as="alternateBounds" />
          </mxGeometry>
        </mxCell>
        <mxCell id="nSlpM6zE50K-tXMGbX81-80" value="" style="shape=partialRectangle;html=1;whiteSpace=wrap;connectable=0;strokeColor=inherit;overflow=hidden;fillColor=none;top=0;left=0;bottom=0;right=0;pointerEvents=1;fontSize=16;" parent="nSlpM6zE50K-tXMGbX81-78" vertex="1">
          <mxGeometry x="17" width="16" height="16" as="geometry">
            <mxRectangle width="16" height="16" as="alternateBounds" />
          </mxGeometry>
        </mxCell>
        <mxCell id="nSlpM6zE50K-tXMGbX81-81" value="" style="shape=partialRectangle;html=1;whiteSpace=wrap;connectable=0;strokeColor=inherit;overflow=hidden;fillColor=none;top=0;left=0;bottom=0;right=0;pointerEvents=1;fontSize=16;" parent="nSlpM6zE50K-tXMGbX81-78" vertex="1">
          <mxGeometry x="33" width="17" height="16" as="geometry">
            <mxRectangle width="17" height="16" as="alternateBounds" />
          </mxGeometry>
        </mxCell>
        <mxCell id="nSlpM6zE50K-tXMGbX81-82" value="" style="shape=tableRow;horizontal=0;startSize=0;swimlaneHead=0;swimlaneBody=0;strokeColor=inherit;top=0;left=0;bottom=0;right=0;collapsible=0;dropTarget=0;fillColor=none;points=[[0,0.5],[1,0.5]];portConstraint=eastwest;fontSize=16;" parent="nSlpM6zE50K-tXMGbX81-73" vertex="1">
          <mxGeometry y="33" width="50" height="17" as="geometry" />
        </mxCell>
        <mxCell id="nSlpM6zE50K-tXMGbX81-83" value="" style="shape=partialRectangle;html=1;whiteSpace=wrap;connectable=0;strokeColor=inherit;overflow=hidden;fillColor=none;top=0;left=0;bottom=0;right=0;pointerEvents=1;fontSize=16;" parent="nSlpM6zE50K-tXMGbX81-82" vertex="1">
          <mxGeometry width="17" height="17" as="geometry">
            <mxRectangle width="17" height="17" as="alternateBounds" />
          </mxGeometry>
        </mxCell>
        <mxCell id="nSlpM6zE50K-tXMGbX81-84" value="" style="shape=partialRectangle;html=1;whiteSpace=wrap;connectable=0;strokeColor=inherit;overflow=hidden;fillColor=none;top=0;left=0;bottom=0;right=0;pointerEvents=1;fontSize=16;" parent="nSlpM6zE50K-tXMGbX81-82" vertex="1">
          <mxGeometry x="17" width="16" height="17" as="geometry">
            <mxRectangle width="16" height="17" as="alternateBounds" />
          </mxGeometry>
        </mxCell>
        <mxCell id="nSlpM6zE50K-tXMGbX81-85" value="" style="shape=partialRectangle;html=1;whiteSpace=wrap;connectable=0;strokeColor=inherit;overflow=hidden;fillColor=none;top=0;left=0;bottom=0;right=0;pointerEvents=1;fontSize=16;" parent="nSlpM6zE50K-tXMGbX81-82" vertex="1">
          <mxGeometry x="33" width="17" height="17" as="geometry">
            <mxRectangle width="17" height="17" as="alternateBounds" />
          </mxGeometry>
        </mxCell>
        <mxCell id="nSlpM6zE50K-tXMGbX81-98" value="" style="group" parent="1" vertex="1" connectable="0">
          <mxGeometry x="460" y="220" width="84" height="44" as="geometry" />
        </mxCell>
        <mxCell id="nSlpM6zE50K-tXMGbX81-95" value="&lt;font face=&quot;Times New Roman&quot;&gt;&lt;span style=&quot;font-size: 14px;&quot;&gt;Linear&lt;/span&gt;&lt;/font&gt;" style="rounded=0;whiteSpace=wrap;html=1;align=center;verticalAlign=middle;fontFamily=Helvetica;fontSize=12;fillColor=#b1ddf0;strokeColor=#10739e;" parent="nSlpM6zE50K-tXMGbX81-98" vertex="1">
          <mxGeometry x="4" y="4" width="80" height="40" as="geometry" />
        </mxCell>
        <mxCell id="nSlpM6zE50K-tXMGbX81-94" value="&lt;font face=&quot;Times New Roman&quot;&gt;&lt;span style=&quot;font-size: 14px;&quot;&gt;Linear&lt;/span&gt;&lt;/font&gt;" style="rounded=0;whiteSpace=wrap;html=1;align=center;verticalAlign=middle;fontFamily=Helvetica;fontSize=12;fillColor=#b1ddf0;strokeColor=#10739e;" parent="nSlpM6zE50K-tXMGbX81-98" vertex="1">
          <mxGeometry x="2" y="2" width="80" height="40" as="geometry" />
        </mxCell>
        <mxCell id="nSlpM6zE50K-tXMGbX81-87" value="&lt;div&gt;&lt;span style=&quot;font-size: 14px;&quot;&gt;&lt;font face=&quot;宋体&quot;&gt;线性变换&lt;/font&gt;&lt;/span&gt;&lt;/div&gt;&lt;font face=&quot;Times New Roman&quot;&gt;&lt;span style=&quot;font-size: 14px;&quot;&gt;(Linear)&lt;/span&gt;&lt;/font&gt;" style="rounded=0;whiteSpace=wrap;html=1;align=center;verticalAlign=middle;fontFamily=Helvetica;fontSize=12;fillColor=#b1ddf0;strokeColor=#10739e;" parent="nSlpM6zE50K-tXMGbX81-98" vertex="1">
          <mxGeometry width="80" height="40" as="geometry" />
        </mxCell>
        <mxCell id="nSlpM6zE50K-tXMGbX81-99" value="" style="group" parent="1" vertex="1" connectable="0">
          <mxGeometry x="568" y="220" width="84" height="44" as="geometry" />
        </mxCell>
        <mxCell id="nSlpM6zE50K-tXMGbX81-100" value="&lt;font face=&quot;Times New Roman&quot;&gt;&lt;span style=&quot;font-size: 14px;&quot;&gt;Linear&lt;/span&gt;&lt;/font&gt;" style="rounded=0;whiteSpace=wrap;html=1;align=center;verticalAlign=middle;fontFamily=Helvetica;fontSize=12;fillColor=#b1ddf0;strokeColor=#10739e;" parent="nSlpM6zE50K-tXMGbX81-99" vertex="1">
          <mxGeometry x="4" y="4" width="80" height="40" as="geometry" />
        </mxCell>
        <mxCell id="nSlpM6zE50K-tXMGbX81-101" value="&lt;font face=&quot;Times New Roman&quot;&gt;&lt;span style=&quot;font-size: 14px;&quot;&gt;Linear&lt;/span&gt;&lt;/font&gt;" style="rounded=0;whiteSpace=wrap;html=1;align=center;verticalAlign=middle;fontFamily=Helvetica;fontSize=12;fillColor=#b1ddf0;strokeColor=#10739e;" parent="nSlpM6zE50K-tXMGbX81-99" vertex="1">
          <mxGeometry x="2" y="2" width="80" height="40" as="geometry" />
        </mxCell>
        <mxCell id="nSlpM6zE50K-tXMGbX81-102" value="&lt;div&gt;&lt;span style=&quot;font-size: 14px;&quot;&gt;&lt;font face=&quot;宋体&quot;&gt;线性变换&lt;/font&gt;&lt;/span&gt;&lt;/div&gt;&lt;font face=&quot;Times New Roman&quot;&gt;&lt;span style=&quot;font-size: 14px;&quot;&gt;(Linear)&lt;/span&gt;&lt;/font&gt;" style="rounded=0;whiteSpace=wrap;html=1;align=center;verticalAlign=middle;fontFamily=Helvetica;fontSize=12;fillColor=#b1ddf0;strokeColor=#10739e;" parent="nSlpM6zE50K-tXMGbX81-99" vertex="1">
          <mxGeometry width="80" height="40" as="geometry" />
        </mxCell>
        <mxCell id="nSlpM6zE50K-tXMGbX81-103" value="" style="group" parent="1" vertex="1" connectable="0">
          <mxGeometry x="678" y="220" width="84" height="44" as="geometry" />
        </mxCell>
        <mxCell id="nSlpM6zE50K-tXMGbX81-104" value="&lt;font face=&quot;Times New Roman&quot;&gt;&lt;span style=&quot;font-size: 14px;&quot;&gt;Linear&lt;/span&gt;&lt;/font&gt;" style="rounded=0;whiteSpace=wrap;html=1;align=center;verticalAlign=middle;fontFamily=Helvetica;fontSize=12;fillColor=#b1ddf0;strokeColor=#10739e;" parent="nSlpM6zE50K-tXMGbX81-103" vertex="1">
          <mxGeometry x="4" y="4" width="80" height="40" as="geometry" />
        </mxCell>
        <mxCell id="nSlpM6zE50K-tXMGbX81-105" value="&lt;font face=&quot;Times New Roman&quot;&gt;&lt;span style=&quot;font-size: 14px;&quot;&gt;Linear&lt;/span&gt;&lt;/font&gt;" style="rounded=0;whiteSpace=wrap;html=1;align=center;verticalAlign=middle;fontFamily=Helvetica;fontSize=12;fillColor=#b1ddf0;strokeColor=#10739e;" parent="nSlpM6zE50K-tXMGbX81-103" vertex="1">
          <mxGeometry x="2" y="2" width="80" height="40" as="geometry" />
        </mxCell>
        <mxCell id="nSlpM6zE50K-tXMGbX81-106" value="&lt;div&gt;&lt;span style=&quot;font-size: 14px;&quot;&gt;&lt;font face=&quot;宋体&quot;&gt;线性变换&lt;/font&gt;&lt;/span&gt;&lt;/div&gt;&lt;font face=&quot;Times New Roman&quot;&gt;&lt;span style=&quot;font-size: 14px;&quot;&gt;(Linear)&lt;/span&gt;&lt;/font&gt;" style="rounded=0;whiteSpace=wrap;html=1;align=center;verticalAlign=middle;fontFamily=Helvetica;fontSize=12;fillColor=#b1ddf0;strokeColor=#10739e;" parent="nSlpM6zE50K-tXMGbX81-103" vertex="1">
          <mxGeometry width="80" height="40" as="geometry" />
        </mxCell>
        <mxCell id="nSlpM6zE50K-tXMGbX81-121" style="edgeStyle=orthogonalEdgeStyle;rounded=0;orthogonalLoop=1;jettySize=auto;html=1;exitX=0.1;exitY=0.5;exitDx=0;exitDy=0;exitPerimeter=0;entryX=0;entryY=0.5;entryDx=0;entryDy=0;dashed=1;dashPattern=1 4;" parent="1" source="nSlpM6zE50K-tXMGbX81-111" target="nSlpM6zE50K-tXMGbX81-118" edge="1">
          <mxGeometry relative="1" as="geometry">
            <Array as="points">
              <mxPoint x="763" y="185" />
            </Array>
          </mxGeometry>
        </mxCell>
        <mxCell id="nSlpM6zE50K-tXMGbX81-111" value="" style="shape=curlyBracket;whiteSpace=wrap;html=1;rounded=1;flipH=1;labelPosition=right;verticalLabelPosition=middle;align=left;verticalAlign=middle;rotation=-45;size=0.5;" parent="1" vertex="1">
          <mxGeometry x="759" y="216" width="5" height="8" as="geometry" />
        </mxCell>
        <mxCell id="nSlpM6zE50K-tXMGbX81-120" style="edgeStyle=orthogonalEdgeStyle;rounded=0;orthogonalLoop=1;jettySize=auto;html=1;exitX=0.1;exitY=0.5;exitDx=0;exitDy=0;exitPerimeter=0;entryX=0;entryY=0.5;entryDx=0;entryDy=0;dashed=1;dashPattern=1 4;" parent="1" source="nSlpM6zE50K-tXMGbX81-114" target="nSlpM6zE50K-tXMGbX81-118" edge="1">
          <mxGeometry relative="1" as="geometry">
            <Array as="points">
              <mxPoint x="653" y="185" />
            </Array>
          </mxGeometry>
        </mxCell>
        <mxCell id="nSlpM6zE50K-tXMGbX81-114" value="" style="shape=curlyBracket;whiteSpace=wrap;html=1;rounded=1;flipH=1;labelPosition=right;verticalLabelPosition=middle;align=left;verticalAlign=middle;rotation=-45;size=0.5;" parent="1" vertex="1">
          <mxGeometry x="649" y="216" width="5" height="8" as="geometry" />
        </mxCell>
        <mxCell id="nSlpM6zE50K-tXMGbX81-119" style="edgeStyle=orthogonalEdgeStyle;rounded=0;orthogonalLoop=1;jettySize=auto;html=1;exitX=0.1;exitY=0.5;exitDx=0;exitDy=0;exitPerimeter=0;entryX=0;entryY=0.5;entryDx=0;entryDy=0;dashed=1;dashPattern=1 4;" parent="1" source="nSlpM6zE50K-tXMGbX81-115" target="nSlpM6zE50K-tXMGbX81-118" edge="1">
          <mxGeometry relative="1" as="geometry">
            <Array as="points">
              <mxPoint x="545" y="185" />
            </Array>
          </mxGeometry>
        </mxCell>
        <mxCell id="nSlpM6zE50K-tXMGbX81-115" value="" style="shape=curlyBracket;whiteSpace=wrap;html=1;rounded=1;flipH=1;labelPosition=right;verticalLabelPosition=middle;align=left;verticalAlign=middle;rotation=-45;size=0.5;" parent="1" vertex="1">
          <mxGeometry x="541" y="216" width="5" height="8" as="geometry" />
        </mxCell>
        <mxCell id="nSlpM6zE50K-tXMGbX81-122" style="edgeStyle=orthogonalEdgeStyle;rounded=0;orthogonalLoop=1;jettySize=auto;html=1;exitX=0.1;exitY=0.5;exitDx=0;exitDy=0;exitPerimeter=0;entryX=0;entryY=0.5;entryDx=0;entryDy=0;dashed=1;dashPattern=1 4;" parent="1" source="nSlpM6zE50K-tXMGbX81-116" target="nSlpM6zE50K-tXMGbX81-118" edge="1">
          <mxGeometry relative="1" as="geometry">
            <Array as="points">
              <mxPoint x="768" y="185" />
            </Array>
          </mxGeometry>
        </mxCell>
        <mxCell id="nSlpM6zE50K-tXMGbX81-118" value="&lt;font style=&quot;font-size: 16px;&quot;&gt;×&lt;font style=&quot;font-size: 16px;&quot; face=&quot;宋体&quot;&gt;头数量&lt;/font&gt;&lt;/font&gt;" style="text;html=1;align=center;verticalAlign=middle;whiteSpace=wrap;rounded=0;" parent="1" vertex="1">
          <mxGeometry x="790" y="170" width="60" height="30" as="geometry" />
        </mxCell>
        <mxCell id="nSlpM6zE50K-tXMGbX81-123" value="" style="edgeStyle=orthogonalEdgeStyle;rounded=0;orthogonalLoop=1;jettySize=auto;html=1;" parent="1" source="nSlpM6zE50K-tXMGbX81-95" target="nSlpM6zE50K-tXMGbX81-107" edge="1">
          <mxGeometry relative="1" as="geometry">
            <Array as="points">
              <mxPoint x="504" y="280" />
              <mxPoint x="612" y="280" />
            </Array>
          </mxGeometry>
        </mxCell>
        <mxCell id="nSlpM6zE50K-tXMGbX81-127" value="" style="edgeStyle=orthogonalEdgeStyle;rounded=0;orthogonalLoop=1;jettySize=auto;html=1;" parent="1" source="nSlpM6zE50K-tXMGbX81-100" target="nSlpM6zE50K-tXMGbX81-107" edge="1">
          <mxGeometry relative="1" as="geometry" />
        </mxCell>
        <mxCell id="nSlpM6zE50K-tXMGbX81-128" value="" style="edgeStyle=orthogonalEdgeStyle;rounded=0;orthogonalLoop=1;jettySize=auto;html=1;" parent="1" source="nSlpM6zE50K-tXMGbX81-104" target="nSlpM6zE50K-tXMGbX81-107" edge="1">
          <mxGeometry relative="1" as="geometry">
            <Array as="points">
              <mxPoint x="722" y="280" />
              <mxPoint x="612" y="280" />
            </Array>
          </mxGeometry>
        </mxCell>
        <mxCell id="nSlpM6zE50K-tXMGbX81-129" value="" style="group" parent="1" vertex="1" connectable="0">
          <mxGeometry x="460" y="301.40380592228746" width="311.09619407771254" height="48.59619407771254" as="geometry" />
        </mxCell>
        <mxCell id="nSlpM6zE50K-tXMGbX81-110" value="&lt;span style=&quot;font-family: &amp;quot;Times New Roman&amp;quot;; font-size: 16px;&quot;&gt;Scaled Dot-Product Attention&lt;/span&gt;" style="rounded=0;whiteSpace=wrap;html=1;dashed=1;fillColor=#dae8fc;strokeColor=#6c8ebf;" parent="nSlpM6zE50K-tXMGbX81-129" vertex="1">
          <mxGeometry x="4" y="8.59619407771254" width="304" height="40" as="geometry" />
        </mxCell>
        <mxCell id="nSlpM6zE50K-tXMGbX81-109" value="&lt;span style=&quot;font-family: &amp;quot;Times New Roman&amp;quot;; font-size: 16px;&quot;&gt;Scaled Dot-Product Attention&lt;/span&gt;" style="rounded=0;whiteSpace=wrap;html=1;dashed=1;fillColor=#dae8fc;strokeColor=#6c8ebf;" parent="nSlpM6zE50K-tXMGbX81-129" vertex="1">
          <mxGeometry x="2" y="6.596194077712539" width="304" height="40" as="geometry" />
        </mxCell>
        <mxCell id="nSlpM6zE50K-tXMGbX81-107" value="&lt;span style=&quot;font-size: 16px;&quot;&gt;&lt;font face=&quot;宋体&quot;&gt;&lt;b&gt;缩放点积注意力&lt;/b&gt;&lt;/font&gt;&lt;/span&gt;" style="rounded=0;whiteSpace=wrap;html=1;dashed=1;fillColor=#dae8fc;strokeColor=#6c8ebf;" parent="nSlpM6zE50K-tXMGbX81-129" vertex="1">
          <mxGeometry y="4.596194077712539" width="304" height="40" as="geometry" />
        </mxCell>
        <mxCell id="nSlpM6zE50K-tXMGbX81-116" value="" style="shape=curlyBracket;whiteSpace=wrap;html=1;rounded=1;flipH=1;labelPosition=right;verticalLabelPosition=middle;align=left;verticalAlign=middle;rotation=-45;size=0.5;" parent="nSlpM6zE50K-tXMGbX81-129" vertex="1">
          <mxGeometry x="304" y="0.5961940777125392" width="5" height="8" as="geometry" />
        </mxCell>
        <mxCell id="nSlpM6zE50K-tXMGbX81-139" style="edgeStyle=orthogonalEdgeStyle;rounded=0;orthogonalLoop=1;jettySize=auto;html=1;exitX=1;exitY=0.5;exitDx=0;exitDy=0;entryX=0;entryY=0.5;entryDx=0;entryDy=0;" parent="1" source="nSlpM6zE50K-tXMGbX81-130" target="nSlpM6zE50K-tXMGbX81-137" edge="1">
          <mxGeometry relative="1" as="geometry" />
        </mxCell>
        <mxCell id="nSlpM6zE50K-tXMGbX81-130" value="&lt;span style=&quot;font-size: 14px;&quot;&gt;&lt;font face=&quot;宋体&quot;&gt;拼接&lt;/font&gt;&lt;/span&gt;&lt;div&gt;&lt;font face=&quot;Times New Roman&quot;&gt;&lt;span style=&quot;font-size: 14px;&quot;&gt;(Concat)&lt;/span&gt;&lt;/font&gt;&lt;/div&gt;" style="rounded=0;whiteSpace=wrap;html=1;align=center;verticalAlign=middle;fontFamily=Helvetica;fontSize=12;fillColor=#fff2cc;strokeColor=#d6b656;" parent="1" vertex="1">
          <mxGeometry x="463.99999999999994" y="395" width="80" height="40" as="geometry" />
        </mxCell>
        <mxCell id="nSlpM6zE50K-tXMGbX81-132" value="" style="edgeStyle=orthogonalEdgeStyle;rounded=0;orthogonalLoop=1;jettySize=auto;html=1;" parent="1" source="nSlpM6zE50K-tXMGbX81-110" target="nSlpM6zE50K-tXMGbX81-130" edge="1">
          <mxGeometry relative="1" as="geometry" />
        </mxCell>
        <mxCell id="nSlpM6zE50K-tXMGbX81-154" style="edgeStyle=orthogonalEdgeStyle;rounded=0;orthogonalLoop=1;jettySize=auto;html=1;exitX=1;exitY=0.5;exitDx=0;exitDy=0;entryX=0;entryY=0.5;entryDx=0;entryDy=0;" parent="1" source="nSlpM6zE50K-tXMGbX81-137" target="nSlpM6zE50K-tXMGbX81-145" edge="1">
          <mxGeometry relative="1" as="geometry" />
        </mxCell>
        <mxCell id="nSlpM6zE50K-tXMGbX81-137" value="&lt;div&gt;&lt;span style=&quot;font-size: 14px;&quot;&gt;&lt;font face=&quot;宋体&quot;&gt;线性变换&lt;/font&gt;&lt;/span&gt;&lt;/div&gt;&lt;font face=&quot;Times New Roman&quot;&gt;&lt;span style=&quot;font-size: 14px;&quot;&gt;(Linear)&lt;/span&gt;&lt;/font&gt;" style="rounded=0;whiteSpace=wrap;html=1;align=center;verticalAlign=middle;fontFamily=Helvetica;fontSize=12;fillColor=#b1ddf0;strokeColor=#10739e;" parent="1" vertex="1">
          <mxGeometry x="589" y="395" width="80" height="40" as="geometry" />
        </mxCell>
        <mxCell id="nSlpM6zE50K-tXMGbX81-140" value="" style="shape=table;startSize=0;container=1;collapsible=0;childLayout=tableLayout;fontSize=16;fillColor=none;" parent="1" vertex="1">
          <mxGeometry x="721.1" y="390" width="50" height="50" as="geometry" />
        </mxCell>
        <mxCell id="nSlpM6zE50K-tXMGbX81-141" value="" style="shape=tableRow;horizontal=0;startSize=0;swimlaneHead=0;swimlaneBody=0;strokeColor=inherit;top=0;left=0;bottom=0;right=0;collapsible=0;dropTarget=0;fillColor=none;points=[[0,0.5],[1,0.5]];portConstraint=eastwest;fontSize=16;" parent="nSlpM6zE50K-tXMGbX81-140" vertex="1">
          <mxGeometry width="50" height="17" as="geometry" />
        </mxCell>
        <mxCell id="nSlpM6zE50K-tXMGbX81-142" value="" style="shape=partialRectangle;html=1;whiteSpace=wrap;connectable=0;strokeColor=inherit;overflow=hidden;fillColor=none;top=0;left=0;bottom=0;right=0;pointerEvents=1;fontSize=16;" parent="nSlpM6zE50K-tXMGbX81-141" vertex="1">
          <mxGeometry width="17" height="17" as="geometry">
            <mxRectangle width="17" height="17" as="alternateBounds" />
          </mxGeometry>
        </mxCell>
        <mxCell id="nSlpM6zE50K-tXMGbX81-143" value="" style="shape=partialRectangle;html=1;whiteSpace=wrap;connectable=0;strokeColor=inherit;overflow=hidden;fillColor=none;top=0;left=0;bottom=0;right=0;pointerEvents=1;fontSize=16;" parent="nSlpM6zE50K-tXMGbX81-141" vertex="1">
          <mxGeometry x="17" width="16" height="17" as="geometry">
            <mxRectangle width="16" height="17" as="alternateBounds" />
          </mxGeometry>
        </mxCell>
        <mxCell id="nSlpM6zE50K-tXMGbX81-144" value="" style="shape=partialRectangle;html=1;whiteSpace=wrap;connectable=0;strokeColor=inherit;overflow=hidden;fillColor=none;top=0;left=0;bottom=0;right=0;pointerEvents=1;fontSize=16;" parent="nSlpM6zE50K-tXMGbX81-141" vertex="1">
          <mxGeometry x="33" width="17" height="17" as="geometry">
            <mxRectangle width="17" height="17" as="alternateBounds" />
          </mxGeometry>
        </mxCell>
        <mxCell id="nSlpM6zE50K-tXMGbX81-145" value="" style="shape=tableRow;horizontal=0;startSize=0;swimlaneHead=0;swimlaneBody=0;strokeColor=inherit;top=0;left=0;bottom=0;right=0;collapsible=0;dropTarget=0;fillColor=none;points=[[0,0.5],[1,0.5]];portConstraint=eastwest;fontSize=16;" parent="nSlpM6zE50K-tXMGbX81-140" vertex="1">
          <mxGeometry y="17" width="50" height="16" as="geometry" />
        </mxCell>
        <mxCell id="nSlpM6zE50K-tXMGbX81-146" value="" style="shape=partialRectangle;html=1;whiteSpace=wrap;connectable=0;strokeColor=inherit;overflow=hidden;fillColor=none;top=0;left=0;bottom=0;right=0;pointerEvents=1;fontSize=16;" parent="nSlpM6zE50K-tXMGbX81-145" vertex="1">
          <mxGeometry width="17" height="16" as="geometry">
            <mxRectangle width="17" height="16" as="alternateBounds" />
          </mxGeometry>
        </mxCell>
        <mxCell id="nSlpM6zE50K-tXMGbX81-147" value="" style="shape=partialRectangle;html=1;whiteSpace=wrap;connectable=0;strokeColor=inherit;overflow=hidden;fillColor=none;top=0;left=0;bottom=0;right=0;pointerEvents=1;fontSize=16;" parent="nSlpM6zE50K-tXMGbX81-145" vertex="1">
          <mxGeometry x="17" width="16" height="16" as="geometry">
            <mxRectangle width="16" height="16" as="alternateBounds" />
          </mxGeometry>
        </mxCell>
        <mxCell id="nSlpM6zE50K-tXMGbX81-148" value="" style="shape=partialRectangle;html=1;whiteSpace=wrap;connectable=0;strokeColor=inherit;overflow=hidden;fillColor=none;top=0;left=0;bottom=0;right=0;pointerEvents=1;fontSize=16;" parent="nSlpM6zE50K-tXMGbX81-145" vertex="1">
          <mxGeometry x="33" width="17" height="16" as="geometry">
            <mxRectangle width="17" height="16" as="alternateBounds" />
          </mxGeometry>
        </mxCell>
        <mxCell id="nSlpM6zE50K-tXMGbX81-149" value="" style="shape=tableRow;horizontal=0;startSize=0;swimlaneHead=0;swimlaneBody=0;strokeColor=inherit;top=0;left=0;bottom=0;right=0;collapsible=0;dropTarget=0;fillColor=none;points=[[0,0.5],[1,0.5]];portConstraint=eastwest;fontSize=16;" parent="nSlpM6zE50K-tXMGbX81-140" vertex="1">
          <mxGeometry y="33" width="50" height="17" as="geometry" />
        </mxCell>
        <mxCell id="nSlpM6zE50K-tXMGbX81-150" value="" style="shape=partialRectangle;html=1;whiteSpace=wrap;connectable=0;strokeColor=inherit;overflow=hidden;fillColor=none;top=0;left=0;bottom=0;right=0;pointerEvents=1;fontSize=16;" parent="nSlpM6zE50K-tXMGbX81-149" vertex="1">
          <mxGeometry width="17" height="17" as="geometry">
            <mxRectangle width="17" height="17" as="alternateBounds" />
          </mxGeometry>
        </mxCell>
        <mxCell id="nSlpM6zE50K-tXMGbX81-151" value="" style="shape=partialRectangle;html=1;whiteSpace=wrap;connectable=0;strokeColor=inherit;overflow=hidden;fillColor=none;top=0;left=0;bottom=0;right=0;pointerEvents=1;fontSize=16;" parent="nSlpM6zE50K-tXMGbX81-149" vertex="1">
          <mxGeometry x="17" width="16" height="17" as="geometry">
            <mxRectangle width="16" height="17" as="alternateBounds" />
          </mxGeometry>
        </mxCell>
        <mxCell id="nSlpM6zE50K-tXMGbX81-152" value="" style="shape=partialRectangle;html=1;whiteSpace=wrap;connectable=0;strokeColor=inherit;overflow=hidden;fillColor=none;top=0;left=0;bottom=0;right=0;pointerEvents=1;fontSize=16;" parent="nSlpM6zE50K-tXMGbX81-149" vertex="1">
          <mxGeometry x="33" width="17" height="17" as="geometry">
            <mxRectangle width="17" height="17" as="alternateBounds" />
          </mxGeometry>
        </mxCell>
        <mxCell id="nSlpM6zE50K-tXMGbX81-156" value="&lt;font face=&quot;宋体&quot; style=&quot;font-size: 16px;&quot;&gt;&lt;b&gt;多头注意力&lt;/b&gt;&lt;/font&gt;" style="text;html=1;align=center;verticalAlign=middle;whiteSpace=wrap;rounded=0;" parent="1" vertex="1">
          <mxGeometry x="555" y="450" width="200" height="30" as="geometry" />
        </mxCell>
        <mxCell id="8U9trMAeQtRVT35c-Qjn-1" value="&lt;font face=&quot;宋体&quot; style=&quot;font-size: 16px;&quot;&gt;查询&lt;/font&gt;&lt;font style=&quot;font-size: 16px;&quot; face=&quot;Times New Roman&quot;&gt;(Q)&lt;/font&gt;" style="text;html=1;align=center;verticalAlign=middle;whiteSpace=wrap;rounded=0;" vertex="1" parent="1">
          <mxGeometry x="460" y="80" width="80" height="30" as="geometry" />
        </mxCell>
        <mxCell id="8U9trMAeQtRVT35c-Qjn-2" value="&lt;font face=&quot;宋体&quot; style=&quot;font-size: 16px;&quot;&gt;键&lt;/font&gt;&lt;font style=&quot;font-size: 16px;&quot; face=&quot;Times New Roman&quot;&gt;(K)&lt;/font&gt;" style="text;html=1;align=center;verticalAlign=middle;whiteSpace=wrap;rounded=0;" vertex="1" parent="1">
          <mxGeometry x="585" y="80" width="50" height="30" as="geometry" />
        </mxCell>
        <mxCell id="8U9trMAeQtRVT35c-Qjn-3" value="&lt;font face=&quot;宋体&quot; style=&quot;font-size: 16px;&quot;&gt;值&lt;/font&gt;&lt;font style=&quot;font-size: 16px;&quot; face=&quot;Times New Roman&quot;&gt;(V)&lt;/font&gt;" style="text;html=1;align=center;verticalAlign=middle;whiteSpace=wrap;rounded=0;" vertex="1" parent="1">
          <mxGeometry x="695" y="80" width="50" height="30" as="geometry" />
        </mxCell>
        <mxCell id="8U9trMAeQtRVT35c-Qjn-4" value="&lt;font face=&quot;宋体&quot; style=&quot;font-size: 16px;&quot;&gt;输出&lt;/font&gt;&lt;font style=&quot;font-size: 16px;&quot; face=&quot;Times New Roman&quot;&gt;(Z)&lt;/font&gt;" style="text;html=1;align=center;verticalAlign=middle;whiteSpace=wrap;rounded=0;" vertex="1" parent="1">
          <mxGeometry x="716.1" y="360" width="60" height="30" as="geometry" />
        </mxCell>
      </root>
    </mxGraphModel>
  </diagram>
</mxfile>
